<?xml version="1.0" standalone="no"?>
<!DOCTYPE svg PUBLIC "-//W3C//DTD SVG 20010904//EN"
 "http://www.w3.org/TR/2001/REC-SVG-20010904/DTD/svg10.dtd">
<svg version="1.0" xmlns="http://www.w3.org/2000/svg"
 width="225.000000pt" height="225.000000pt" viewBox="0 0 225.000000 225.000000"
 preserveAspectRatio="xMidYMid meet">
<metadata>
Created by potrace 1.11, written by Peter Selinger 2001-2013
</metadata>
<g transform="translate(0.000000,225.000000) scale(0.100000,-0.100000)"
fill="#000000" stroke="none">
<path d="M0 1125 l0 -1125 1125 0 1125 0 0 1125 0 1125 -1125 0 -1125 0 0
-1125z m1348 935 c118 -28 229 -120 283 -235 26 -55 31 -79 31 -139 1 -40 -5
-90 -12 -112 -15 -46 -75 -169 -101 -205 -27 -39 -33 -74 -15 -92 9 -8 16 -29
16 -46 0 -26 4 -31 25 -31 39 0 89 -25 113 -55 47 -60 15 -228 -73 -377 -24
-42 -84 -118 -131 -168 -206 -216 -423 -324 -654 -325 -175 0 -260 47 -327
181 -35 72 -37 82 -41 193 -5 134 10 224 64 391 48 146 134 306 319 596 69
107 101 188 62 156 -9 -8 -21 -5 -45 10 -18 11 -32 22 -32 25 0 8 64 87 90
111 105 99 293 153 428 122z"/>
<path d="M1220 2020 c-150 -32 -185 -46 -244 -99 -60 -53 -64 -58 -34 -57 15
1 27 -8 35 -26 11 -23 11 -33 -3 -70 -10 -24 -23 -50 -29 -58 -7 -8 -27 -42
-44 -75 -18 -32 -38 -67 -46 -75 -8 -9 -15 -19 -15 -23 0 -3 -20 -38 -45 -76
-25 -38 -45 -74 -45 -79 0 -5 -8 -20 -18 -33 -10 -13 -32 -49 -48 -79 -16 -30
-33 -58 -38 -61 -5 -4 -14 -22 -21 -40 -70 -188 -91 -268 -100 -374 -4 -44
-12 -83 -17 -86 -7 -4 -6 -33 2 -80 28 -165 87 -254 188 -283 32 -9 75 -16 94
-16 20 0 39 -6 41 -12 4 -10 8 -10 14 -2 4 7 53 19 107 28 66 10 111 23 135
39 20 13 57 31 82 40 25 10 54 25 65 35 10 9 32 26 48 36 126 81 280 267 331
398 10 27 21 48 25 48 9 0 21 139 14 167 -8 28 -23 33 -114 40 -41 3 -80 10
-87 15 -7 5 -16 7 -21 4 -17 -10 -218 -17 -202 -6 11 7 7 10 -19 10 -27 0 -32
3 -23 12 9 9 8 16 -7 32 -11 12 -31 42 -44 69 l-25 47 -30 -52 c-26 -46 -82
-187 -82 -206 0 -3 7 3 15 14 14 18 14 18 15 -4 0 -13 -4 -31 -10 -41 -14 -27
-29 -132 -23 -164 9 -45 32 -50 129 -27 140 33 158 25 72 -32 -59 -39 -137
-68 -180 -68 -36 0 -83 24 -92 45 -20 53 3 241 40 322 8 17 14 39 14 50 0 28
40 105 140 271 14 23 29 40 34 39 5 -2 9 -31 7 -65 -2 -61 16 -121 52 -164 37
-46 153 -62 239 -32 46 15 46 16 32 42 -18 35 -8 98 22 138 38 51 105 205 111
255 10 83 -47 212 -124 280 -40 34 -104 65 -168 79 -23 5 -48 11 -56 13 -8 3
-30 1 -49 -3z m-54 -879 c-3 -5 -20 -11 -38 -13 -18 -3 -42 -9 -52 -13 -14 -6
-17 -5 -12 4 5 7 18 16 30 21 28 12 79 12 72 1z"/>
<path d="M970 822 c0 -12 19 -26 26 -19 2 2 -2 10 -11 17 -9 8 -15 8 -15 2z"/>
</g>
</svg>
